{
	"asset":{
		"generator":"Khronos glTF Blender I/O v4.5.47",
		"version":"2.0"
	},
	"scene":0,
	"scenes":[
		{
			"name":"Scene",
			"nodes":[
				0,
				11
			]
		}
	],
	"nodes":[
		{
			"mesh":0,
			"name":"Room",
			"scale":[
				3,
				3,
				3
			]
		},
		{
			"name":"Object_7"
		},
		{
			"children":[
				1
			],
			"name":"Camera.001",
			"rotation":[
				-0.2125573456287384,
				0.9047970771789551,
				-0.08438929915428162,
				0.35922181606292725
			],
			"scale":[
				99.99999237060547,
				100,
				99.99996185302734
			],
			"translation":[
				735.88916015625,
				495.83087158203125,
				692.5790405273438
			]
		},
		{
			"mesh":1,
			"name":"Final:pSphere6_Chair2_0",
			"rotation":[
				0,
				0.36442628502845764,
				0,
				0.9312322735786438
			],
			"translation":[
				-24.078550338745117,
				-1.9283784627914429,
				-22.911197662353516
			]
		},
		{
			"mesh":2,
			"name":"Final:pSphere6_Legs1_0",
			"rotation":[
				0,
				0.36442628502845764,
				0,
				0.9312322735786438
			],
			"translation":[
				-24.078550338745117,
				-1.9283784627914429,
				-22.911197662353516
			]
		},
		{
			"children":[
				3,
				4
			],
			"name":"Final:pSphere6"
		},
		{
			"name":"Object_5"
		},
		{
			"children":[
				6
			],
			"name":"Object_4",
			"rotation":[
				0.7071068286895752,
				0,
				0,
				0.7071068286895752
			]
		},
		{
			"children":[
				7
			],
			"name":"Light.001",
			"rotation":[
				0.16907577216625214,
				0.7558803558349609,
				-0.27217140793800354,
				0.5709474682807922
			],
			"scale":[
				99.99999237060547,
				99.99999237060547,
				100.00000762939453
			],
			"translation":[
				407.6245422363281,
				590.3861694335938,
				-100.54537963867188
			]
		},
		{
			"children":[
				2,
				5,
				8
			],
			"name":"RootNode"
		},
		{
			"children":[
				9
			],
			"name":"6759b481e2834809bed63d2c6ab2fea3.fbx",
			"rotation":[
				0.70710688829422,
				0,
				0,
				0.7071066498756409
			],
			"scale":[
				0.009999999776482582,
				0.009999999776482582,
				0.009999999776482582
			]
		},
		{
			"children":[
				10
			],
			"name":"Chair",
			"rotation":[
				-0.70710688829422,
				0,
				0,
				0.7071066498756409
			]
		}
	],
	"materials":[
		{
			"doubleSided":true,
			"name":"Material.002",
			"pbrMetallicRoughness":{
				"baseColorFactor":[
					0.800000011920929,
					0.800000011920929,
					0.800000011920929,
					1
				],
				"metallicFactor":0,
				"roughnessFactor":0.5
			}
		},
		{
			"doubleSided":true,
			"name":"Chair2",
			"normalTexture":{
				"index":0
			},
			"pbrMetallicRoughness":{
				"baseColorTexture":{
					"index":1
				},
				"metallicRoughnessTexture":{
					"index":2
				}
			}
		},
		{
			"doubleSided":true,
			"name":"Legs1",
			"normalTexture":{
				"index":3
			},
			"pbrMetallicRoughness":{
				"baseColorTexture":{
					"index":4
				},
				"metallicRoughnessTexture":{
					"index":5
				}
			}
		}
	],
	"meshes":[
		{
			"name":"Cube.002",
			"primitives":[
				{
					"attributes":{
						"POSITION":0,
						"NORMAL":1,
						"TEXCOORD_0":2
					},
					"indices":3,
					"material":0
				}
			]
		},
		{
			"name":"Final:pSphere6_Chair2_0",
			"primitives":[
				{
					"attributes":{
						"POSITION":4,
						"NORMAL":5,
						"TEXCOORD_0":6,
						"TEXCOORD_1":7,
						"TEXCOORD_2":8
					},
					"indices":9,
					"material":1
				}
			]
		},
		{
			"name":"Final:pSphere6_Legs1_0",
			"primitives":[
				{
					"attributes":{
						"POSITION":10,
						"NORMAL":11,
						"TEXCOORD_0":12,
						"TEXCOORD_1":13
					},
					"indices":14,
					"material":2
				}
			]
		}
	],
	"textures":[
		{
			"sampler":0,
			"source":0
		},
		{
			"sampler":0,
			"source":1
		},
		{
			"sampler":0,
			"source":2
		},
		{
			"sampler":0,
			"source":3
		},
		{
			"sampler":0,
			"source":4
		},
		{
			"sampler":0,
			"source":5
		}
	],
	"images":[
		{
			"mimeType":"image/png",
			"name":"Chair2_normal",
			"uri":"Chair2_normal.png"
		},
		{
			"mimeType":"image/png",
			"name":"Chair2_baseColor",
			"uri":"Chair2_baseColor.png"
		},
		{
			"mimeType":"image/png",
			"name":"Chair2_metallicRoughness",
			"uri":"Chair2_metallicRoughness.png"
		},
		{
			"mimeType":"image/png",
			"name":"Legs1_normal",
			"uri":"Legs1_normal.png"
		},
		{
			"mimeType":"image/png",
			"name":"Legs1_baseColor",
			"uri":"Legs1_baseColor.png"
		},
		{
			"mimeType":"image/png",
			"name":"Legs1_metallicRoughness",
			"uri":"Legs1_metallicRoughness.png"
		}
	],
	"accessors":[
		{
			"bufferView":0,
			"componentType":5126,
			"count":76,
			"max":[
				1.5615220069885254,
				1.4081659317016602,
				1.5615220069885254
			],
			"min":[
				-0.6845653057098389,
				-0.006893277168273926,
				-0.6845654249191284
			],
			"type":"VEC3"
		},
		{
			"bufferView":1,
			"componentType":5126,
			"count":76,
			"type":"VEC3"
		},
		{
			"bufferView":2,
			"componentType":5126,
			"count":76,
			"type":"VEC2"
		},
		{
			"bufferView":3,
			"componentType":5123,
			"count":150,
			"type":"SCALAR"
		},
		{
			"bufferView":4,
			"componentType":5126,
			"count":21261,
			"max":[
				64.06620025634766,
				143.9071044921875,
				47.754417419433594
			],
			"min":[
				-63.96528625488281,
				41.78510665893555,
				-54.49998474121094
			],
			"type":"VEC3"
		},
		{
			"bufferView":5,
			"componentType":5126,
			"count":21261,
			"type":"VEC3"
		},
		{
			"bufferView":6,
			"componentType":5126,
			"count":21261,
			"type":"VEC2"
		},
		{
			"bufferView":7,
			"componentType":5126,
			"count":21261,
			"type":"VEC2"
		},
		{
			"bufferView":8,
			"componentType":5126,
			"count":21261,
			"type":"VEC2"
		},
		{
			"bufferView":9,
			"componentType":5123,
			"count":120912,
			"type":"SCALAR"
		},
		{
			"bufferView":10,
			"componentType":5126,
			"count":7626,
			"max":[
				40.17091369628906,
				46.532264709472656,
				42.541114807128906
			],
			"min":[
				-43.58818817138672,
				0.4489593505859375,
				-31.106525421142578
			],
			"type":"VEC3"
		},
		{
			"bufferView":11,
			"componentType":5126,
			"count":7626,
			"type":"VEC3"
		},
		{
			"bufferView":12,
			"componentType":5126,
			"count":7626,
			"type":"VEC2"
		},
		{
			"bufferView":13,
			"componentType":5126,
			"count":7626,
			"type":"VEC2"
		},
		{
			"bufferView":14,
			"componentType":5123,
			"count":43164,
			"type":"SCALAR"
		}
	],
	"bufferViews":[
		{
			"buffer":0,
			"byteLength":912,
			"byteOffset":0,
			"target":34962
		},
		{
			"buffer":0,
			"byteLength":912,
			"byteOffset":912,
			"target":34962
		},
		{
			"buffer":0,
			"byteLength":608,
			"byteOffset":1824,
			"target":34962
		},
		{
			"buffer":0,
			"byteLength":300,
			"byteOffset":2432,
			"target":34963
		},
		{
			"buffer":0,
			"byteLength":255132,
			"byteOffset":2732,
			"target":34962
		},
		{
			"buffer":0,
			"byteLength":255132,
			"byteOffset":257864,
			"target":34962
		},
		{
			"buffer":0,
			"byteLength":170088,
			"byteOffset":512996,
			"target":34962
		},
		{
			"buffer":0,
			"byteLength":170088,
			"byteOffset":683084,
			"target":34962
		},
		{
			"buffer":0,
			"byteLength":170088,
			"byteOffset":853172,
			"target":34962
		},
		{
			"buffer":0,
			"byteLength":241824,
			"byteOffset":1023260,
			"target":34963
		},
		{
			"buffer":0,
			"byteLength":91512,
			"byteOffset":1265084,
			"target":34962
		},
		{
			"buffer":0,
			"byteLength":91512,
			"byteOffset":1356596,
			"target":34962
		},
		{
			"buffer":0,
			"byteLength":61008,
			"byteOffset":1448108,
			"target":34962
		},
		{
			"buffer":0,
			"byteLength":61008,
			"byteOffset":1509116,
			"target":34962
		},
		{
			"buffer":0,
			"byteLength":86328,
			"byteOffset":1570124,
			"target":34963
		}
	],
	"samplers":[
		{
			"magFilter":9729,
			"minFilter":9987
		}
	],
	"buffers":[
		{
			"byteLength":1656452,
			"uri":"spaceship-room.bin"
		}
	]
}
